<svg width="581" height="560" viewBox="0 0 581 560" fill="none" xmlns="http://www.w3.org/2000/svg">
<rect width="580.741" height="560" fill="black"/>
<path d="M161.1 250.4L161 250.6H152.7L152.6 250.4C155.4 250.2 155.6 249.7 155.6 247.3V231.6C155.6 229.5 155.3 228.5 152.8 228.3V228.2H160.9V228.4C158.4 228.6 158.1 229.5 158.1 231.7V238.7H171.1V231.7C171.1 229.6 170.8 228.6 168.3 228.4V228.2H176.4V228.4C173.9 228.6 173.6 229.5 173.6 231.7V247.4C173.6 249.8 173.8 250.3 176.6 250.5L176.5 250.7H168.2L168.1 250.5C170.9 250.3 171.1 249.8 171.1 247.4V239.3H158.1V247.4C158.2 249.7 158.4 250.3 161.1 250.4Z" fill="white"/>
<path d="M193.8 236.4V236.7C192.9 236.9 191.5 238.2 191 239.4L186.1 252.4C184.3 257.4 180.9 259.2 178.5 259.2C178.2 259.2 177.8 259.2 177.6 259.1C177.3 258.9 177.1 258.1 177.1 257.6C177.1 257.1 177.2 257.2 178.1 257.6C178.7 257.9 179.7 258.4 180.2 258.4C182.9 258.4 183.9 254.5 185.4 250.3L180.2 238.7C179.5 237.1 178.9 236.9 177.4 236.8V236.4H184V236.7C182.6 237.1 181.8 237.1 182.5 238.7L186.9 248.7L190.4 239.1C190.9 237.8 191 237 188.9 236.7V236.4H193.8Z" fill="white"/>
<path d="M209.6 242.5C209.6 246.6 206.5 250.5 202.2 250.9C200.8 251.1 199.7 250.6 198.8 250.2V256.1C198.8 258 198.8 259 201.3 259.2V259.4L194.7 259.2L194.6 259C196.7 258.7 196.7 258.4 196.6 256.1V239.4C196.6 238 196.4 237 194.8 237.2L194.2 237.3V237.1C195.3 236.9 197.2 236.4 198.1 235.9H198.4C198.4 235.9 198.7 237.1 198.7 239V239.2C199.8 237.7 201.1 236.4 203.3 235.9C206.9 235.2 209.6 238.1 209.6 242.5ZM207.6 244C207.6 240.1 206.1 237 202.7 237C199.2 237 198.5 240.1 198.6 244.5C198.6 247.4 198.7 250.2 202.6 250.2C205.8 250.2 207.6 247.2 207.6 244Z" fill="white"/>
<path d="M225.1 247.4L225.2 247.6C224 249.4 221.7 251.2 218.7 251C214.8 250.7 212.5 247.3 212.5 243.4C212.5 239.1 215.8 236.1 219.8 235.8C222.8 235.6 224.7 237.9 225 240.7V241.2C225 241.4 224.2 241.6 223.7 241.6H214.7C214.7 242.1 214.7 242.2 214.7 242.2C214.7 246.1 216.7 249.6 220.2 249.6C222.2 249.7 223.7 248.9 225.1 247.4ZM221.4 241.3C222.3 241.3 222.4 241.3 222.8 241.1C222.6 238.4 221.3 236.4 218.9 236.4C216.7 236.4 214.9 238.3 214.8 241.3H221.4V241.3Z" fill="white"/>
<path d="M238.1 236.6L237.4 239.1C237.2 239 237.1 238.8 237 238.6C236.6 238 236 237.3 235.1 237.3C234.5 237.3 233.4 237.9 232.6 239L232.1 239.7V247.4C232.1 249.3 232.2 250.3 234.9 250.4V250.6H227.9L227.8 250.4C229.9 250.2 230 249.8 230 247.4V239.3C230 237.9 229.8 236.9 228.2 237.1L227.6 237.2V237C228.7 236.8 230.6 236.3 231.5 235.8H231.8C231.8 235.8 232.1 237.3 232.1 239.2L232.6 238.5C233.9 236.8 235.2 235.7 236.5 235.7C237.1 235.8 237.9 236 238.1 236.6Z" fill="white"/>
<path d="M250.5 246.1C250.5 249.1 247.5 250.9 244.1 250.9C242.4 250.9 241.3 250.4 240.5 250.1V246.6H240.9C241.2 249 242.9 250.4 245.6 250.4C247.3 250.4 248.8 249.3 248.8 247.5C248.8 242.9 240.5 244.5 240.5 240.1C240.5 237.7 243.4 236.1 245.3 235.9C247.3 235.7 249.2 236.3 250 236.7L249.7 240.2H249.4C249.1 237.8 247.6 236.4 244.9 236.4C243 236.4 242.2 237.8 242.2 239C242.2 242.8 250.5 241.7 250.5 246.1Z" fill="white"/>
<path d="M267.8 242.5C267.8 246.6 264.7 250.5 260.4 250.9C259 251.1 257.9 250.6 257 250.2V256.1C257 258 257 259 259.5 259.2V259.4L252.9 259.2L252.8 259C254.9 258.7 254.9 258.4 254.8 256.1V239.4C254.8 238 254.6 237 253 237.2L252.4 237.3V237.1C253.5 236.9 255.4 236.4 256.3 235.9H256.6C256.6 235.9 256.9 237.1 256.9 239V239.2C258 237.7 259.3 236.4 261.5 235.9C265.1 235.2 267.8 238.1 267.8 242.5ZM265.8 244C265.8 240.1 264.3 237 260.9 237C257.4 237 256.7 240.1 256.8 244.5C256.8 247.4 256.9 250.2 260.8 250.2C264 250.2 265.8 247.2 265.8 244Z" fill="white"/>
<path d="M283.3 247.4L283.4 247.6C282.2 249.4 279.9 251.2 276.9 251C273 250.7 270.7 247.3 270.7 243.4C270.7 239.1 274 236.1 278 235.8C281 235.6 282.9 237.9 283.2 240.7V241.2C283.2 241.4 282.4 241.6 281.9 241.6H272.9C272.9 242.1 272.9 242.2 272.9 242.2C272.9 246.1 274.9 249.6 278.4 249.6C280.4 249.7 281.9 248.9 283.3 247.4ZM279.6 241.3C280.5 241.3 280.6 241.3 281 241.1C280.8 238.4 279.5 236.4 277.1 236.4C274.9 236.4 273.1 238.3 273 241.3H279.6V241.3Z" fill="white"/>
<path d="M298.8 247.5C297.6 249.3 295.3 251.1 292.3 250.9C288.4 250.6 286.1 247.2 286.1 243.3C286.1 239 289.4 236 293.4 235.7C295.1 235.6 297.1 236.2 298 236.7L297.7 240.4H297.4C297.1 238 295.6 236.2 292.5 236.2C289.6 236.2 288.3 239.5 288.3 242.1C288.3 246 290.3 249.5 293.8 249.5C295.7 249.5 297.2 248.7 298.7 247.2L298.8 247.5Z" fill="white"/>
<path d="M302.4 235C303 234.2 303.6 233.1 304.4 232.1H304.7C304.5 233.2 304.5 234.1 304.5 235.4V236.5H308.6L308.5 237.2H304.5V245.6C304.5 248.2 304.9 250.1 306.7 250.1C307.5 250.1 308.3 249.7 308.9 249.4C308.9 249.5 308.9 249.5 309 249.5C308.9 249.6 308.6 249.8 308.6 249.8C307.9 250.3 307 251 305.3 251C302.6 251 302.3 248.3 302.3 246.8V237.3H299.8V236.9L302.3 236.4V235H302.4Z" fill="white"/>
<path d="M321.6 236.6L320.9 239.1C320.7 239 320.6 238.8 320.5 238.6C320.1 238 319.5 237.3 318.6 237.3C318 237.3 316.9 237.9 316.1 239L315.6 239.7V247.4C315.6 249.3 315.7 250.3 318.4 250.4V250.6H311.4L311.3 250.4C313.4 250.2 313.5 249.8 313.5 247.4V239.3C313.5 237.9 313.3 236.9 311.7 237.1L311.1 237.2V237C312.2 236.8 314.1 236.3 315 235.8H315.3C315.3 235.8 315.6 237.3 315.6 239.2L316.1 238.5C317.4 236.8 318.7 235.7 320 235.7C320.5 235.8 321.3 236 321.6 236.6Z" fill="white"/>
<path d="M329.9 242.7L332.4 242C332.4 238.3 332.1 236.3 329.4 236.3C327.9 236.3 326 238 325.4 240.5H325.1V237.4C325.7 237.1 328.2 235.7 330.3 235.7C333.6 235.7 334.4 237.7 334.4 240.2V247.7C334.3 249.5 334.6 250.4 336.7 250C336.7 250.1 336.8 250.2 336.8 250.2L333.5 250.9C333.2 250.7 332.5 250.2 332.5 249.1V248.3L330.1 249.8C329 250.5 327.9 250.9 326.8 250.9C324.6 250.3 323.9 248.8 323.7 247.2C323.5 244.7 327.7 243.3 329.9 242.7ZM332.5 247.5V242.4L330.6 242.9C326.9 243.9 325.7 245.1 325.9 246.8C326.1 248.9 327.1 249.8 328.5 249.8C330.2 249.8 332.5 248.3 332.5 247.5Z" fill="white"/>
<path d="M345.6 250.6H338.5L338.4 250.4C340.7 250.1 341 249.8 341 247.4V230.6C341 229.2 340.8 228.2 339.2 228.4L338.6 228.5V228.3C339.7 228.1 342 227.5 342.9 227.1H343.2C343.2 227.1 343.1 228.5 343.1 230.4V247.6C343.1 249.5 343.1 250.4 345.6 250.6V250.6V250.6Z" fill="white"/>
<path d="M371.9 250.3C370.1 250.5 368.2 250.8 367.6 250.9L367.3 250.8C367.3 250.8 367.5 248.7 367.4 247.9C366 249.4 364.7 250.2 363.7 250.6C363.1 250.8 362.3 250.9 362 250.9C358.2 250.8 356.4 247.7 356.4 244.5C356.4 241.6 357 240.2 358 239.1C359.4 237.5 362.2 235.8 364.1 235.8C365.7 235.8 366.8 236.3 367.4 236.7V230.6C367.4 229.2 367.2 228.2 365.6 228.4H365V228.2C366.1 228 368.4 227.4 369.3 227H369.6C369.6 227 369.5 228.4 369.5 230.3V239.9V245.4V248C369.5 249.4 369.7 250.4 371.3 250.2L371.9 250.1V250.3ZM367.4 239.8C367.4 237.6 365.5 236.4 363.3 236.4C360 236.4 358.5 239.7 358.5 243C358.5 246.7 360 249.7 363.2 249.7C365.6 249.7 367.4 247.9 367.4 245.3V239.8V239.8Z" fill="white"/>
<path d="M380.2 242.7L382.7 242C382.7 238.3 382.4 236.3 379.7 236.3C378.2 236.3 376.3 238 375.7 240.5H375.4V237.4C376 237.1 378.5 235.7 380.6 235.7C383.9 235.7 384.7 237.7 384.7 240.2V247.7C384.6 249.5 384.9 250.4 387 250C387 250.1 387.1 250.2 387.1 250.2L383.8 250.9C383.5 250.7 382.8 250.2 382.8 249.1V248.3L380.4 249.8C379.3 250.5 378.2 250.9 377.1 250.9C374.9 250.3 374.2 248.8 374 247.2C373.8 244.7 378.1 243.3 380.2 242.7ZM382.8 247.5V242.4L380.9 242.9C377.2 243.9 376 245.1 376.2 246.8C376.4 248.9 377.4 249.8 378.8 249.8C380.6 249.8 382.8 248.3 382.8 247.5Z" fill="white"/>
<path d="M390.1 238.8C389.6 237.5 389.4 236.9 387.8 236.7V236.4H393.9V236.7C392.3 236.9 391.7 237 392.3 238.7L395.6 248L399.3 238.7C398.8 237.4 398.1 236.9 397 236.6V236.4H402.1V236.7C401 236.9 400.8 237.5 401.3 238.6L404.8 247.9L408.2 239.3C409 237.3 408.5 236.9 406.3 236.7V236.5H411.3V236.7C410.2 236.9 409.6 237.5 409.1 238.8C409.1 238.9 409 239.1 404.5 250.8H403.9L399.8 239.6L395.4 250.8H394.7L390.1 238.8Z" fill="white"/>
<path d="M428.1 250.4V250.6H422.7L422.6 250.4C424 250.2 424 249.8 424 247.4V243C424 239.5 423.8 237.1 420.7 237.1C419.1 237.1 416.9 238.6 416.5 239.9V247.5C416.5 249.4 416.4 250.4 418.7 250.5V250.7H412.3L412.2 250.5C414.3 250.3 414.4 249.9 414.4 247.5V239.4C414.4 238 414.2 237 412.6 237.2L412 237.3V237.1C413.1 236.9 415 236.4 415.9 235.9H416.2C416.2 235.9 416.5 237.1 416.5 239C417.9 237.7 419.9 235.7 421.8 235.8C425.7 236.1 426.1 238.2 426.1 242.1V247.4C426 249.3 426 250.3 428.1 250.4Z" fill="white"/>
<path d="M70.4 290.4C67.1 295.3 62 292.3 58 290.6C56.3 289.9 53.7 288.3 50.7 289.9L50.2 290.2V290C51.6 289.1 53.6 288.4 55.2 288.1C48.6 287.2 45 282.6 45 276.2C45 269.5 50.4 264.7 56.7 264.7C63 264.7 67.9 268.8 67.9 276C67.9 282.6 63.6 287.4 57.4 288C55.2 288.2 54 288.5 52.5 289C55.4 288.6 57 289.5 59.4 290.2C62.8 291.3 66.9 292.5 70.3 290.3L70.4 290.4ZM56.6 287.6C63.4 287.6 65 281.7 65 276.7C65 270.3 62.1 265.4 56.1 265.4C50.3 265.4 47.6 269.2 47.5 276.5C47.9 284.4 52.2 287.6 56.6 287.6Z" fill="white"/>
<path d="M86.5 287.3C84.7 287.5 82.8 287.8 82.2 287.9L81.9 287.8C81.9 287.8 82.1 285.7 82 284.9C80.6 286.4 79.3 287.2 78.3 287.6C77.7 287.8 76.7 288 76.4 288C73.8 288.2 72.3 286.2 72.3 283.4C72.3 282.6 72.4 281.8 72.4 280.4V276.4C72.4 275 72.2 274 70.6 274.2H70V274C71.1 273.8 73.4 273.2 74.3 272.8H74.6C74.6 272.8 74.5 274.2 74.5 276.1V282C74.5 285 75.2 286.7 77.6 286.7C80 286.7 82.1 284.9 82.1 282.3V276.3C82.1 274.9 81.9 273.9 80.3 274.1L79.7 274.2V274C80.8 273.8 83.1 273.2 84 272.8H84.3C84.3 272.8 84.2 274.2 84.2 276.1V282.3V285C84.2 286.4 84.4 287.4 86 287.2L86.6 287.1L86.5 287.3Z" fill="white"/>
<path d="M94.7 279.7L97.2 279C97.2 275.3 96.9 273.3 94.2 273.3C92.7 273.3 90.8 275 90.2 277.5H90V274.4C90.6 274.1 93.1 272.7 95.2 272.7C98.5 272.7 99.3 274.7 99.3 277.2V284.7C99.2 286.5 99.5 287.4 101.6 287C101.6 287.1 101.7 287.2 101.7 287.2L98.3 288C98 287.8 97.3 287.3 97.3 286.2V285.4L94.9 286.9C93.8 287.6 92.7 288 91.6 288C89.4 287.4 88.7 285.9 88.5 284.3C88.3 281.7 92.6 280.3 94.7 279.7ZM97.3 284.5V279.4L95.4 279.9C91.7 280.9 90.5 282.1 90.7 283.8C90.9 285.9 91.9 286.8 93.3 286.8C95.1 286.8 97.3 285.3 97.3 284.5Z" fill="white"/>
<path d="M119.4 287.6H116.6C115.1 287.6 114 286.4 112.6 284.4L109.3 279.7L107.8 281V284.5C107.8 286.4 107.8 287.3 110.3 287.5V287.7H103.2L103.1 287.5C105.4 287.2 105.7 286.9 105.7 284.5V267.6C105.7 266.2 105.5 265.2 103.9 265.4L103.3 265.5V265.3C104.4 265.1 106.7 264.5 107.6 264.1H107.9C107.9 264.1 107.8 265.5 107.8 267.4V280.7L112.7 276.3C113.7 275.4 114.5 274.1 112.2 273.8V273.5H118.7V273.8C116.2 274.2 115.6 274.6 113.5 276.3L110.9 278.4L114.4 283.4C116.4 286.3 117.3 287.3 119.4 287.5C119.4 287.5 119.4 287.5 119.4 287.6Z" fill="white"/>
<path d="M133.5 284.4L133.6 284.6C132.4 286.4 130.1 288.2 127.1 288C123.2 287.7 120.9 284.3 120.9 280.4C120.9 276.1 124.2 273.1 128.2 272.8C131.2 272.6 133.1 274.9 133.4 277.7V278.2C133.4 278.4 132.6 278.6 132.1 278.6H123.1C123.1 279.1 123.1 279.2 123.1 279.2C123.1 283.1 125.1 286.6 128.6 286.6C130.6 286.7 132.1 285.9 133.5 284.4ZM129.7 278.3C130.6 278.3 130.7 278.3 131.1 278.1C130.9 275.4 129.6 273.4 127.2 273.4C125 273.4 123.2 275.3 123.1 278.3H129.7V278.3Z" fill="white"/>
<path d="M146.7 283.1C146.7 286.1 143.7 287.9 140.3 287.9C138.6 287.9 137.5 287.4 136.7 287.1V283.6H137.1C137.4 286 139.1 287.4 141.8 287.4C143.5 287.4 145 286.3 145 284.5C145 279.9 136.7 281.5 136.7 277.1C136.7 274.7 139.6 273.1 141.5 272.9C143.5 272.7 145.4 273.3 146.2 273.7L145.9 277.2H145.6C145.3 274.8 143.8 273.4 141.1 273.4C139.2 273.4 138.4 274.8 138.4 276C138.4 279.8 146.7 278.7 146.7 283.1Z" fill="white"/>
<path d="M149.2 291.7L150.9 284.4H153.4L149.5 291.7H149.2Z" fill="white"/>
<path d="M180 279.7C180 283.2 177.9 285.9 174.6 287.5C173.9 287.8 173.2 288 172.3 288C170.8 288 169.3 287.5 168.3 286.5C167.8 287 167.4 287.6 167.4 287.6H167C167 287.3 167.2 286 167.1 285.2V267.6C167.1 266.2 166.9 265.2 165.3 265.4L164.7 265.5V265.3C165.8 265.1 168.1 264.5 169 264.1H169.3C169.3 264.1 169.2 265.5 169.2 267.4V276C170.6 274.4 172.5 272.9 174.4 272.9C178 272.8 180 275.8 180 279.7ZM178.1 280.7C178.1 277.3 176.5 274.1 173.2 274.1C170.8 274.1 169.1 276.1 169.1 277.7V282.4C169.1 286.1 170.8 287.2 173.1 287.2C176.8 287.2 178.1 283.9 178.1 280.7Z" fill="white"/>
<path d="M195.4 284.4L195.5 284.6C194.3 286.4 192 288.2 189 288C185.1 287.7 182.8 284.3 182.8 280.4C182.8 276.1 186.1 273.1 190.1 272.8C193.1 272.6 195 274.9 195.3 277.7V278.2C195.3 278.4 194.5 278.6 194 278.6H185C185 279.1 185 279.2 185 279.2C185 283.1 187 286.6 190.5 286.6C192.5 286.7 194 285.9 195.4 284.4ZM191.7 278.3C192.6 278.3 192.7 278.3 193.1 278.1C192.9 275.4 191.6 273.4 189.2 273.4C187 273.4 185.2 275.3 185.1 278.3H191.7V278.3Z" fill="white"/>
<path d="M204.6 279.7L207.1 279C207.1 275.3 206.8 273.3 204.1 273.3C202.6 273.3 200.7 275 200.1 277.5H199.8V274.4C200.4 274.1 202.9 272.7 205 272.7C208.3 272.7 209.1 274.7 209.1 277.2V284.7C209 286.5 209.3 287.4 211.4 287C211.4 287.1 211.5 287.2 211.5 287.2L208.2 287.9C207.9 287.7 207.2 287.2 207.2 286.1V285.3L204.8 286.8C203.7 287.5 202.6 287.9 201.5 287.9C199.3 287.3 198.6 285.8 198.4 284.2C198.2 281.7 202.4 280.3 204.6 279.7ZM207.2 284.5V279.4L205.3 279.9C201.6 280.9 200.4 282.1 200.6 283.8C200.8 285.9 201.8 286.8 203.2 286.8C205 286.8 207.2 285.3 207.2 284.5Z" fill="white"/>
<path d="M238.6 287.4V287.6H233.2L233.1 287.4C234.5 287.2 234.5 286.8 234.5 284.4V280C234.5 276.5 234.2 274.1 231.1 274.1C229.5 274.1 227.4 275.6 226.9 276.8C227 277.5 227 278.3 227 279.2V284.5C227 286.4 227 287.3 229 287.5V287.7H223.6L223.5 287.5C224.9 287.3 224.9 286.9 224.9 284.5V280C224.9 276.5 224.9 274.1 221.7 274.1C220.1 274.1 217.9 275.6 217.5 276.9V284.5C217.5 286.4 217.4 287.4 219.7 287.5V287.7H213.3L213.2 287.5C215.3 287.3 215.4 286.9 215.4 284.5V276.4C215.4 275 215.2 274 213.6 274.2L213 274.3V274.1C214.1 273.9 216 273.4 216.9 272.9H217.2C217.2 272.9 217.5 274.1 217.5 276C218.9 274.7 220.9 272.7 222.8 272.8C225.5 273 226.5 274.1 226.8 276C228.2 274.7 230.4 272.6 232.2 272.8C236.1 273.1 236.6 275.2 236.6 279.1V284.4C236.5 286.3 236.5 287.3 238.6 287.4Z" fill="white"/>
<path d="M250.8 283.1C250.8 286.1 247.8 287.9 244.4 287.9C242.7 287.9 241.6 287.4 240.8 287.1V283.6H241.2C241.5 286 243.2 287.4 245.9 287.4C247.6 287.4 249.1 286.3 249.1 284.5C249.1 279.9 240.8 281.5 240.8 277.1C240.8 274.7 243.7 273.1 245.6 272.9C247.6 272.7 249.5 273.3 250.3 273.7L250 277.2H249.7C249.4 274.8 247.9 273.4 245.2 273.4C243.3 273.4 242.5 274.8 242.5 276C242.5 279.8 250.8 278.7 250.8 283.1Z" fill="white"/>
<path d="M276.7 279.7C276.7 283.2 274.6 285.9 271.3 287.5C270.6 287.8 269.9 288 269 288C267.5 288 266 287.5 265 286.5C264.5 287 264.1 287.6 264.1 287.6H263.8C263.8 287.3 264 286 263.9 285.2V267.6C263.9 266.2 263.7 265.2 262.1 265.4L261.5 265.5V265.3C262.6 265.1 264.9 264.5 265.8 264.1H266.1C266.1 264.1 266 265.5 266 267.4V276C267.4 274.4 269.3 272.9 271.2 272.9C274.7 272.8 276.7 275.8 276.7 279.7ZM274.8 280.7C274.8 277.3 273.2 274.1 269.9 274.1C267.5 274.1 265.8 276.1 265.8 277.7V282.4C265.8 286.1 267.5 287.2 269.8 287.2C273.5 287.2 274.8 283.9 274.8 280.7Z" fill="white"/>
<path d="M286.4 287.6H279.3L279.2 287.4C281.5 287.1 281.8 286.8 281.8 284.4V267.6C281.8 266.2 281.6 265.2 280 265.4L279.4 265.5V265.3C280.5 265.1 282.8 264.5 283.7 264.1H284C284 264.1 283.9 265.5 283.9 267.4V284.6C283.9 286.5 283.9 287.4 286.4 287.6V287.6V287.6Z" fill="white"/>
<path d="M295.1 279.7L297.6 279C297.6 275.3 297.3 273.3 294.6 273.3C293.1 273.3 291.2 275 290.6 277.5H290.3V274.4C290.9 274.1 293.4 272.7 295.5 272.7C298.8 272.7 299.6 274.7 299.6 277.2V284.7C299.5 286.5 299.8 287.4 301.9 287C301.9 287.1 302 287.2 302 287.2L298.7 287.9C298.4 287.7 297.7 287.2 297.7 286.1V285.3L295.3 286.8C294.2 287.5 293.1 287.9 292 287.9C289.8 287.3 289.1 285.8 288.9 284.2C288.7 281.7 293 280.3 295.1 279.7ZM297.7 284.5V279.4L295.8 279.9C292.1 280.9 290.9 282.1 291.1 283.8C291.3 285.9 292.3 286.8 293.7 286.8C295.5 286.8 297.7 285.3 297.7 284.5Z" fill="white"/>
<path d="M306.5 287.1H311.9C314.1 287.1 315 286.3 316.1 282.9H316.5L315.8 287.5H303.8C303.8 287.4 303.8 287.3 303.8 287.2L313.6 274H308.6C307.1 274 305.7 274.6 304.8 277.6H304.4L305.2 273.3H316.2V273.8L306.5 287.1Z" fill="white"/>
<path d="M331.7 284.4L331.8 284.6C330.6 286.4 328.3 288.2 325.3 288C321.4 287.7 319.1 284.3 319.1 280.4C319.1 276.1 322.4 273.1 326.4 272.8C329.4 272.6 331.3 274.9 331.6 277.7V278.2C331.6 278.4 330.8 278.6 330.3 278.6H321.3C321.3 279.1 321.3 279.2 321.3 279.2C321.3 283.1 323.3 286.6 326.8 286.6C328.8 286.7 330.2 285.9 331.7 284.4ZM327.9 278.3C328.8 278.3 328.9 278.3 329.3 278.1C329.1 275.4 327.8 273.4 325.4 273.4C323.2 273.4 321.4 275.3 321.3 278.3H327.9V278.3Z" fill="white"/>
<path d="M344.7 272C345.3 271.2 345.9 270.1 346.7 269.1H347C346.8 270.2 346.8 271.1 346.8 272.4V273.5H350.9L350.8 274.2H346.8V282.6C346.8 285.2 347.2 287.1 349 287.1C349.8 287.1 350.6 286.7 351.2 286.4C351.2 286.5 351.2 286.5 351.3 286.5C351.2 286.6 350.9 286.8 350.9 286.8C350.2 287.3 349.3 288 347.6 288C344.9 288 344.6 285.3 344.6 283.8V274.3H342.1V274L344.6 273.5V272H344.7Z" fill="white"/>
<path d="M369.3 287.4V287.6H363.9L363.8 287.4C365.2 287.2 365.2 286.8 365.2 284.4V280C365.2 276.5 364.7 274.1 361.9 274.1C360.3 274.1 357.8 275.6 357.5 277.1V284.5C357.5 286.4 357.4 287.4 359.7 287.5V287.7H353.3L353.2 287.5C355.3 287.3 355.4 286.9 355.4 284.5V267.6C355.4 266.2 355.2 265.2 353.6 265.4L353 265.5V265.3C354.1 265.1 356.4 264.5 357.3 264.1H357.6C357.6 264.1 357.5 265.5 357.5 267.4V276.3C359.2 274.1 360.7 272.8 362.7 272.8C366.6 272.8 367.2 275.7 367.2 279.1V284.4C367.3 286.3 367.2 287.3 369.3 287.4Z" fill="white"/>
<path d="M384.1 284.4L384.2 284.6C383 286.4 380.7 288.2 377.7 288C373.8 287.7 371.5 284.3 371.5 280.4C371.5 276.1 374.8 273.1 378.8 272.8C381.8 272.6 383.7 274.9 384 277.7V278.2C384 278.4 383.2 278.6 382.7 278.6H373.7C373.7 279.1 373.7 279.2 373.7 279.2C373.7 283.1 375.7 286.6 379.2 286.6C381.2 286.7 382.7 285.9 384.1 284.4ZM380.4 278.3C381.3 278.3 381.4 278.3 381.8 278.1C381.6 275.4 380.3 273.4 377.9 273.4C375.7 273.4 373.9 275.3 373.8 278.3H380.4V278.3Z" fill="white"/>
<path d="M400.1 272.8C400.1 272.8 400 274.2 400 276.1V288.6C400 293.6 396.9 296.1 393.9 296.1C393.6 296.1 393.2 296.1 393 296C392.7 295.8 392.5 295 392.5 294.5C392.5 294 392.6 294.1 393.5 294.5C394.1 294.8 395.1 295.3 395.6 295.3C397.8 295.3 397.9 291.4 397.8 288.1V276.4C397.8 275 397.6 274 396 274.2L395.4 274.3V274.1C396.5 273.9 398.8 273.3 399.7 272.9H400.1V272.8ZM400.2 267C400.2 267.7 399.6 268.3 398.8 268.3C398 268.3 397.4 267.7 397.4 267C397.4 266.2 398.1 265.7 398.8 265.7C399.5 265.7 400.2 266.2 400.2 267Z" fill="white"/>
<path d="M416.8 284.4L416.9 284.6C415.7 286.4 413.4 288.2 410.4 288C406.5 287.7 404.2 284.3 404.2 280.4C404.2 276.1 407.5 273.1 411.5 272.8C414.5 272.6 416.4 274.9 416.7 277.7V278.2C416.7 278.4 415.9 278.6 415.4 278.6H406.4C406.4 279.1 406.4 279.2 406.4 279.2C406.4 283.1 408.4 286.6 411.9 286.6C413.9 286.7 415.4 285.9 416.8 284.4ZM413 278.3C413.9 278.3 414 278.3 414.4 278.1C414.2 275.4 412.9 273.4 410.5 273.4C408.3 273.4 406.5 275.3 406.4 278.3H413V278.3Z" fill="white"/>
<path d="M420.5 275.8C420 274.5 419.8 273.9 418.2 273.7V273.4H424.3V273.7C422.7 273.9 422.1 274 422.7 275.7L426 285L429.7 275.7C429.2 274.4 428.5 273.9 427.4 273.6V273.3H432.5V273.6C431.4 273.8 431.2 274.4 431.7 275.5L435.2 284.8L438.6 276.2C439.4 274.2 438.9 273.8 436.7 273.6V273.4H441.7V273.6C440.6 273.8 440 274.4 439.5 275.7C439.5 275.8 439.4 276 434.9 287.7H434.3L430.2 276.5L425.8 287.7H425.1L420.5 275.8Z" fill="white"/>
<path d="M455.5 284.4L455.6 284.6C454.4 286.4 452.1 288.2 449.1 288C445.2 287.7 442.9 284.3 442.9 280.4C442.9 276.1 446.2 273.1 450.2 272.8C453.2 272.6 455.1 274.9 455.4 277.7V278.2C455.4 278.4 454.6 278.6 454.1 278.6H445.1C445.1 279.1 445.1 279.2 445.1 279.2C445.1 283.1 447.1 286.6 450.6 286.6C452.6 286.7 454.1 285.9 455.5 284.4ZM451.8 278.3C452.7 278.3 452.8 278.3 453.2 278.1C453 275.4 451.7 273.4 449.3 273.4C447.1 273.4 445.3 275.3 445.2 278.3H451.8V278.3Z" fill="white"/>
<path d="M465.1 287.6H458L457.9 287.4C460.2 287.1 460.5 286.8 460.5 284.4V267.6C460.5 266.2 460.3 265.2 458.7 265.4L458.1 265.5V265.3C459.2 265.1 461.5 264.5 462.4 264.1H462.7C462.7 264.1 462.6 265.5 462.6 267.4V284.6C462.6 286.5 462.6 287.4 465.1 287.6V287.6V287.6Z" fill="white"/>
<path d="M486.3 265.8C486.3 266.4 486.1 266.3 485.1 265.8C484.2 265.4 483.5 265.1 483 265.1C480.7 265.1 480.3 267.7 480.3 273.4H484.3L484.2 274.1H480.4V284.3C480.4 286.4 480.4 287.2 482.8 287.4V287.6H476L475.9 287.4C478 287.1 478.3 286.8 478.3 284.4V274.1H475.5V273.9L478.3 273.4V272.9C478.3 267.2 482 264.2 484.3 264.2C484.9 264.2 485.5 264.3 486 264.5C486.1 264.7 486.3 265.4 486.3 265.8Z" fill="white"/>
<path d="M492.8 279.7L495.3 279C495.3 275.3 495 273.3 492.3 273.3C490.8 273.3 488.9 275 488.3 277.5H488V274.4C488.6 274.1 491.1 272.7 493.2 272.7C496.5 272.7 497.3 274.7 497.3 277.2V284.7C497.2 286.5 497.5 287.4 499.6 287C499.6 287.1 499.7 287.2 499.7 287.2L496.4 287.9C496.1 287.7 495.4 287.2 495.4 286.1V285.3L493 286.8C491.9 287.5 490.8 287.9 489.7 287.9C487.5 287.3 486.8 285.8 486.6 284.2C486.4 281.7 490.7 280.3 492.8 279.7ZM495.4 284.5V279.4L493.5 279.9C489.8 280.9 488.6 282.1 488.8 283.8C489 285.9 490 286.8 491.4 286.8C493.2 286.8 495.4 285.3 495.4 284.5Z" fill="white"/>
<path d="M514.5 284.5C513.3 286.3 511 288.1 508 287.9C504.1 287.6 501.8 284.2 501.8 280.3C501.8 276 505.1 273 509.1 272.7C510.8 272.6 512.8 273.2 513.7 273.7L513.4 277.4H513C512.7 275 511.2 273.2 508.1 273.2C505.2 273.2 503.9 276.5 503.9 279.1C503.9 283 505.9 286.5 509.4 286.5C511.3 286.5 512.8 285.7 514.3 284.2L514.5 284.5Z" fill="white"/>
<path d="M528.8 284.4L528.9 284.6C527.7 286.4 525.4 288.2 522.4 288C518.5 287.7 516.2 284.3 516.2 280.4C516.2 276.1 519.5 273.1 523.5 272.8C526.5 272.6 528.4 274.9 528.7 277.7V278.2C528.7 278.4 527.9 278.6 527.4 278.6H518.4C518.4 279.1 518.4 279.2 518.4 279.2C518.4 283.1 520.4 286.6 523.9 286.6C525.9 286.7 527.4 285.9 528.8 284.4ZM525.1 278.3C526 278.3 526.1 278.3 526.5 278.1C526.3 275.4 525 273.4 522.6 273.4C520.4 273.4 518.6 275.3 518.5 278.3H525.1V278.3Z" fill="white"/>
<path d="M531.1 291.7L532.8 284.4H535.3L531.4 291.7H531.1Z" fill="white"/>
<path d="M169.6 312.7C168.9 311.1 168.4 310.9 167.2 310.8V310.5H173.5V310.8C172.1 311.2 171.4 311.2 172 312.8L175.8 322.5L179.9 313.1C180.5 311.8 180 311 178 310.8V310.5H183.1V310.8C182.2 311 181.3 311.4 180.8 312.6L175.5 324.9H174.7L169.6 312.7Z" fill="white"/>
<path d="M197 321.4L197.1 321.6C195.9 323.4 193.6 325.2 190.6 325C186.7 324.7 184.4 321.3 184.4 317.4C184.4 313.1 187.7 310.1 191.7 309.8C194.7 309.6 196.6 311.9 196.9 314.7V315.2C196.9 315.4 196.1 315.6 195.6 315.6H186.6C186.6 316.1 186.6 316.2 186.6 316.2C186.6 320.1 188.6 323.6 192.1 323.6C194.1 323.7 195.6 322.9 197 321.4ZM193.3 315.3C194.2 315.3 194.3 315.3 194.7 315.1C194.5 312.4 193.2 310.4 190.8 310.4C188.6 310.4 186.8 312.3 186.7 315.3H193.3Z" fill="white"/>
<path d="M215.2 324.4V324.6H209.8L209.7 324.4C211.1 324.2 211.1 323.8 211.1 321.4V317C211.1 313.5 210.9 311.1 207.8 311.1C206.2 311.1 204 312.6 203.6 313.9V321.5C203.6 323.4 203.5 324.4 205.8 324.5V324.7H199.4L199.3 324.5C201.4 324.3 201.5 323.9 201.5 321.5V313.4C201.5 312 201.3 311 199.7 311.2L199.1 311.3V311.1C200.2 310.9 202.1 310.4 203 309.9H203.3C203.3 309.9 203.6 311.1 203.6 313C205 311.7 207 309.7 208.9 309.8C212.8 310.1 213.2 312.2 213.2 316.1V321.4C213.2 323.3 213.1 324.3 215.2 324.4Z" fill="white"/>
<path d="M232.3 317.1C232.3 322.2 228.9 325.1 225 325.1C220 325.1 217.7 321.4 217.7 317.5C217.7 312.7 221 309.9 225.1 309.8C229.8 309.7 232.3 313.4 232.3 317.1ZM220.1 316.7C220.1 321.7 222.4 324.7 225.7 324.7C228.9 324.4 229.8 321.2 230 318.2C230 314.4 228.6 310.2 224.9 310.2C221.8 310.2 220.1 312.7 220.1 316.7Z" fill="white"/>
<path d="M260 324.4V324.6H254.6L254.5 324.4C255.9 324.2 255.9 323.8 255.9 321.4V317C255.9 313.5 255.6 311.1 252.5 311.1C250.9 311.1 248.8 312.6 248.3 313.8C248.4 314.5 248.4 315.3 248.4 316.2V321.5C248.4 323.4 248.4 324.3 250.4 324.5V324.7H245L244.9 324.5C246.3 324.3 246.3 323.9 246.3 321.5V317C246.3 313.5 246.3 311.1 243.1 311.1C241.5 311.1 239.3 312.6 238.9 313.9V321.5C238.9 323.4 238.8 324.4 241.1 324.5V324.7H234.7L234.6 324.5C236.7 324.3 236.8 323.9 236.8 321.5V313.4C236.8 312 236.6 311 235 311.2L234.4 311.3V311.1C235.5 310.9 237.4 310.4 238.3 309.9H238.6C238.6 309.9 238.9 311.1 238.9 313C240.3 311.7 242.3 309.7 244.2 309.8C246.9 310 247.9 311.1 248.2 313C249.6 311.7 251.8 309.6 253.6 309.8C257.5 310.1 258 312.2 258 316.1V321.4C258 323.3 257.9 324.3 260 324.4Z" fill="white"/>
<path d="M268.9 324.6H261.8L261.7 324.4C264 324.1 264.3 323.8 264.3 321.4V313.3C264.3 311.9 264.1 310.9 262.5 311.1L261.9 311.2V311C263 310.8 265.3 310.2 266.2 309.8H266.5C266.5 309.8 266.4 311.2 266.4 313.1V321.4C266.4 323.3 266.4 324.2 268.9 324.4V324.6V324.6ZM266.4 304C266.4 304.7 265.8 305.3 265 305.3C264.2 305.3 263.6 304.7 263.6 304C263.6 303.2 264.3 302.7 265 302.7C265.8 302.7 266.4 303.2 266.4 304Z" fill="white"/>
<path d="M273.7 324.1H279.1C281.3 324.1 282.2 323.3 283.3 319.9H283.7L283 324.5H271C271 324.4 271 324.3 271 324.2L280.8 311H275.8C274.3 311 272.9 311.6 272 314.6H271.6L272.4 310.3H283.4V310.8L273.7 324.1Z" fill="white"/>
<path d="M298.9 321.4L299 321.6C297.8 323.4 295.5 325.2 292.5 325C288.6 324.7 286.3 321.3 286.3 317.4C286.3 313.1 289.6 310.1 293.6 309.8C296.6 309.6 298.5 311.9 298.8 314.7V315.2C298.8 315.4 298 315.6 297.5 315.6H288.5C288.5 316.1 288.5 316.2 288.5 316.2C288.5 320.1 290.5 323.6 294 323.6C296 323.7 297.5 322.9 298.9 321.4ZM295.2 315.3C296.1 315.3 296.2 315.3 296.6 315.1C296.4 312.4 295.1 310.4 292.7 310.4C290.5 310.4 288.7 312.3 288.6 315.3H295.2Z" fill="white"/>
<path d="M317.2 324.3C315.4 324.5 313.5 324.8 312.9 324.9L312.6 324.8C312.6 324.8 312.8 322.7 312.7 321.9C311.3 323.4 310 324.2 309 324.6C308.4 324.8 307.6 324.9 307.3 324.9C303.5 324.8 301.7 321.7 301.7 318.5C301.7 315.6 302.3 314.2 303.3 313.1C304.7 311.5 307.5 309.8 309.4 309.8C311 309.8 312.1 310.3 312.7 310.7V304.5C312.7 303.1 312.5 302.1 310.9 302.3L310.3 302.4V302.2C311.4 302 313.7 301.4 314.6 301H314.9C314.9 301 314.8 302.4 314.8 304.3V313.9V319.4V322C314.8 323.4 315 324.4 316.6 324.2L317.2 324.1V324.3ZM312.7 313.8C312.7 311.6 310.8 310.4 308.6 310.4C305.3 310.4 303.8 313.7 303.8 317C303.8 320.7 305.3 323.7 308.5 323.7C310.9 323.7 312.7 321.9 312.7 319.3V313.8V313.8Z" fill="white"/>
<path d="M340.1 321.4L340.2 321.6C339 323.4 336.7 325.2 333.7 325C329.8 324.7 327.5 321.3 327.5 317.4C327.5 313.1 330.8 310.1 334.8 309.8C337.8 309.6 339.7 311.9 340 314.7V315.2C340 315.4 339.2 315.6 338.7 315.6H329.7C329.7 316.1 329.7 316.2 329.7 316.2C329.7 320.1 331.7 323.6 335.2 323.6C337.2 323.7 338.7 322.9 340.1 321.4ZM336.4 315.3C337.3 315.3 337.4 315.3 337.8 315.1C337.6 312.4 336.3 310.4 333.9 310.4C331.7 310.4 329.9 312.3 329.8 315.3H336.4Z" fill="white"/>
<path d="M357 310.4V310.7C355.7 310.9 355.2 311.2 354.4 312.2L350.7 316.9L355 322.9C355.8 323.9 356.3 324.2 357.7 324.4V324.7H351.5L351.6 324.4C352.9 324.3 353.1 323.9 352.5 323L349.4 318.6L346.1 322.8C345.2 324 346.3 324.3 347.4 324.4V324.7H342.4V324.4C343.7 324.2 344.2 323.9 345 322.9L348.9 318L344.8 312.2C344 311.2 343.5 310.9 342.1 310.7V310.4H348.3L348.2 310.7C346.9 310.8 346.7 311.2 347.3 312.1L350.2 316.2L353.3 312.3C354.2 311.1 353.1 310.8 352 310.7V310.4H357V310.4Z" fill="white"/>
<path d="M371.8 321.5C370.6 323.3 368.3 325.1 365.3 324.9C361.4 324.6 359.1 321.2 359.1 317.3C359.1 313 362.4 310 366.4 309.7C368.1 309.6 370.1 310.2 371 310.7L370.7 314.4H370.4C370.1 312 368.6 310.2 365.5 310.2C362.6 310.2 361.3 313.5 361.3 316.1C361.3 320 363.3 323.5 366.8 323.5C368.7 323.5 370.2 322.7 371.7 321.2L371.8 321.5Z" fill="white"/>
<path d="M386.2 321.4L386.3 321.6C385.1 323.4 382.8 325.2 379.8 325C375.9 324.7 373.6 321.3 373.6 317.4C373.6 313.1 376.9 310.1 380.9 309.8C383.9 309.6 385.8 311.9 386.1 314.7V315.2C386.1 315.4 385.3 315.6 384.8 315.6H375.8C375.8 316.1 375.8 316.2 375.8 316.2C375.8 320.1 377.8 323.6 381.3 323.6C383.3 323.7 384.8 322.9 386.2 321.4ZM382.5 315.3C383.4 315.3 383.5 315.3 383.9 315.1C383.7 312.4 382.4 310.4 380 310.4C377.8 310.4 376 312.3 375.9 315.3H382.5Z" fill="white"/>
<path d="M399.5 320.1C399.5 323.1 396.5 324.9 393.1 324.9C391.4 324.9 390.3 324.4 389.5 324.1V320.6H389.9C390.2 323 391.9 324.4 394.6 324.4C396.2 324.4 397.8 323.3 397.8 321.5C397.8 316.9 389.5 318.5 389.5 314.1C389.5 311.7 392.4 310.1 394.3 309.9C396.3 309.7 398.2 310.3 399 310.7L398.7 314.2H398.4C398.1 311.8 396.6 310.4 393.9 310.4C392 310.4 391.2 311.8 391.2 313C391.1 316.8 399.5 315.7 399.5 320.1Z" fill="white"/>
<path d="M412.9 320.1C412.9 323.1 409.9 324.9 406.5 324.9C404.8 324.9 403.7 324.4 402.9 324.1V320.6H403.3C403.6 323 405.3 324.4 408 324.4C409.6 324.4 411.2 323.3 411.2 321.5C411.2 316.9 402.9 318.5 402.9 314.1C402.9 311.7 405.8 310.1 407.7 309.9C409.7 309.7 411.6 310.3 412.4 310.7L412.1 314.2H411.8C411.5 311.8 410 310.4 407.3 310.4C405.4 310.4 404.6 311.8 404.6 313C404.6 316.8 412.9 315.7 412.9 320.1Z" fill="white"/>
</svg>
