<svg width="327" height="357" viewBox="0 0 327 357" fill="none" xmlns="http://www.w3.org/2000/svg">
<g clip-path="url(#clip0)">
<path d="M288.3 243.2C288.7 242.8 289.1 242.4 289.4 242C291.5 239.7 292.6 236.7 292.4 233.7C292.2 231.1 291 228.8 289 227.3C287.7 226.2 285.8 225.4 283.6 224.9C279.2 223.9 275.3 224.4 271.9 226.5C269.1 228.3 267.4 230.9 266.5 235.1C264.7 243.3 266.5 249.6 271.7 254.5C278.7 260.9 287.1 264.2 296.8 264.3C301.5 264.4 305.7 263.2 309.4 261C316.9 256.5 320.4 249.5 322.9 243.1C324.9 238.1 326 232.6 326.4 226.2C327.1 214.8 324.7 204 319.3 194.3C314.7 186 308.5 178.6 300.2 171.5C287.8 160.9 275.3 154.1 262 150.7C254.4 148.8 247.4 147.9 240.5 148C232.9 148.2 226.3 149.1 220.2 150.8L218.6 151.3C214.3 152.5 209.8 153.7 205.6 155.4C200.9 157.3 195.9 159.7 189.9 163C185.9 165.2 181.9 167.6 178.1 170L177.8 170.2C176.6 170.9 175.5 171.6 174.3 172.4C173.8 171.2 173.9 169.8 174.7 168.4C176.2 165.6 177.8 162.4 179.7 159.5C183 154.5 186.5 149.3 189.6 144.7C192.3 140.6 195.5 136.1 198.4 131.6C206.2 119.8 215.1 105.6 221.3 89.5C224.4 81.4 226.5 73.6 227.7 65.8C229.3 55.6 227.9 45.2 223.5 34C221.1 27.9 219 22.7 216.9 17.9C215 13.6 212.6 8.69998 208.7 4.59998C207.2 2.99998 205.3 1.69998 203.6 0.699976C201.9 -0.400024 200.1 -0.200024 198.9 1.09998C197.2 2.99998 198.5 4.79998 199.2 5.69998L201 8.09998C202.5 10.1 203.9 12.1 205.4 14.1C208.6 18.4 211.3 23.3 213.3 28.5C215.3 33.8 216.2 39.4 216.8 43.6C217.6 49.9 216.5 55.8 213.2 61.9C209.7 68.4 205.1 74.6 199.3 80.7C187.9 92.6 177.8 102.9 168.3 112.4C161 119.7 156.7 128.8 153.2 137.6C151.8 141.1 150.5 144.8 149.3 148.3C148.5 150.5 147.7 152.9 146.8 155.1C146.3 156.5 145.6 158.2 144.7 159.5C143.4 161.5 141.1 162 138.6 162.5L138.4 162.6C136.8 163 135.8 162.2 134.3 160.9C134.1 160.7 133.9 160.6 133.7 160.4C127.4 155.3 118.8 148.9 108.7 144.4C100.3 140.7 92.5999 138.3 85.0999 137.1C71.4999 134.9 60.5999 135.1 50.6999 137.7C44.3999 139.3 38.3999 141.9 32.9999 145.4C25.8999 149.9 19.3999 155.9 13.8999 163.2C5.99994 173.5 1.59995 185.4 0.599945 198.5C-0.500055 208 0.799945 216.9 3.99995 225C7.19995 233 10.7999 238.8 15.4999 243.2C19.1999 246.7 23.4999 248.9 28.5999 250C32.8999 250.9 37.3999 250.8 42.7999 249.7C48.1999 248.5 52.3999 245.9 55.0999 242C58.6999 236.8 59.8999 230.7 58.8999 223.2C58.3999 219.4 56.5999 216.2 53.5999 214.2C49.6999 211.5 45.0999 210.4 39.5999 210.9C36.5999 211.2 34.1999 212.9 33.0999 215.7C32.4999 217.1 32.2999 218.6 31.9999 220.2C31.4999 223.1 32.7999 225.6 35.3999 227C36.7999 227.7 38.1999 228.3 39.5999 228.9C40.3999 229.2 41.0999 229.6 41.8999 229.9C44.1999 231 45.4999 231.9 45.5999 234C45.7999 237.2 44.5999 239.3 42.1999 240.6C35.8999 243.8 27.2999 245.6 22.1999 240.9C16.0999 235.2 11.7999 228.1 9.59995 219.9C7.59995 212.4 9.39994 202.9 13.9999 196.8C21.0999 187.3 29.4999 181.6 39.6999 179.1C43.2999 178.2 46.0999 178.3 48.4999 179.2C51.6999 180.4 53.2999 183.3 54.6999 186.1C58.8999 194.7 63.7999 195.6 70.1999 194.2C75.2999 193.1 79.7999 190.6 84.3999 187.9C86.0999 186.9 87.8999 185.9 89.5999 184.8L90.0999 184.5C94.8999 181.7 99.7999 178.7 104.8 176.1C109.3 173.7 114.5 172.5 120.3 172.5C126 172.5 134.3 174.1 141.7 181.7C142 182 142.3 182.4 142.6 182.7C142.8 182.9 143 183.2 143.2 183.4C144.2 184.6 145.3 185.8 146.1 187C149.5 192.1 151.6 197.9 153.2 202.9C155.1 208.9 156.2 215 156.4 221C156.5 223 156.1 225 155.7 227C155.6 227.8 155.2 228.3 154.8 228.5C154.7 228.5 154.4 228.7 153.9 228.4C152.2 227.5 150.5 226.5 148.4 225.2C141.8 221.3 133.8 217.2 124.4 216.2C115.4 215.3 108 217.7 101.7 223.5C94.5999 230 89.8999 237.8 87.7999 246.6C86.5999 251.3 85.6999 256 87.4999 260.8C87.9999 262 89.0999 263.2 90.1999 263.6C91.6999 264.1 93.2999 262.4 93.6999 261.7C95.1999 259.4 96.4999 257 97.7999 254.6L97.8999 254.5C100.2 250.4 103.4 247.9 107.3 247.1C111.2 246.3 115.3 246.7 120.4 248.3C122 248.8 123.6 249.4 125.2 249.9C127.9 250.8 130.7 251.8 133.5 252.5C137 253.4 140.8 254 144.2 251.5C144.8 251.1 145.3 251 146.1 251.8C146.8 252.4 146.9 253.5 146.4 254.2C145.6 255.2 144.8 256.3 143.7 257.6C140.6 261.2 137.2 265.3 135.8 270.7C134.1 277.2 134.2 283.5 136.3 289.2C137.1 291.4 138.9 293.2 141.1 294C143.1 294.7 145.1 294.4 146.8 293.3C147.2 293 147.6 292.8 148 292.5L147.4 291.7L148.1 292.5C148.5 292.2 148.9 292 149.3 291.7C153.6 289.1 154.1 289.2 156.9 291.4C165.5 298.1 173 304.7 179.7 311.7C180.1 312.2 180.5 312.7 181 313.3C180.9 313.4 180.7 313.5 180.6 313.6C178.5 314.5 176.4 315.4 174.4 316.2H174.3C173.2 316.7 172.1 317.1 170.9 317.6C166 319.7 162.8 322.5 160.7 326.5C158.5 330.8 158.5 335.3 158.7 339.4C158.9 343.3 160 346.7 162.2 349.5C165 353.2 168.6 355.4 172.8 355.9C175.8 356.3 178.8 356.2 181.7 356.1C182.8 356.1 183.8 356 184.9 356C185.9 356 186.8 355.7 187.5 355.2C191.8 352.1 193.3 347.6 192.3 341.2C191.9 339 190.4 337.5 187.9 337.1C186.8 336.9 183.4 336.2 181.8 339.3C180.9 340.9 180.2 342.7 179.7 344.6C179 347.1 177.5 348.8 176 348.9C172.4 349.1 169.9 348 168.3 345.3C165.6 340.8 166 335.7 166.8 331.3C167 330.2 167.6 328.8 168.8 327.3C171.4 323.7 175.5 322.8 179.9 322.1C181.3 321.9 182.6 322.2 184.2 323.1C187.5 324.9 191 326.8 194.6 328.7L200.7 331.8C207.9 335.6 215.4 339.4 222.9 343.1C227.5 345.4 232.6 347.6 238 349.6C242.1 351.1 246.3 352.3 250.4 353.5L252.9 354.2C253.4 354.3 253.8 354.5 254.3 354.6C256.1 355.2 258.2 355.8 260.3 355.8C263.4 355.7 266.6 355.8 269.7 355.9C271.9 356 274.3 356 276.6 356C282.2 356 286.5 355.6 290.4 354.6C291.4 354.4 292.4 354.2 293.4 354C294.5 353.8 295.7 353.6 296.9 353.3L299.9 352.5C304.3 351.3 308.9 350.1 313.3 348.6C316.2 347.6 319 346.1 321.7 344.7L321.9 344.6C322.6 344.2 323.4 343.8 324.1 343.5C325.1 343 325.7 342.3 325.9 341.5C326.1 340.6 325.8 339.7 325.1 338.7C323.2 336.3 321.4 333.7 319.5 331.2C318.9 330.4 318.4 329.7 317.8 328.9C317.1 328 316.5 327.2 315.5 327.1C314.5 327 313.7 327.5 312.8 328.2C305.2 334.3 296.4 338.6 286.6 340.9C280.9 342.3 275 342.9 269.8 343.5C258.8 344.6 250.1 343.6 242.4 340.2C237.6 338.1 234 334.7 231.5 330.1C229 325.4 227.9 320 228.2 313.6C228.3 311.6 228.6 308.7 229.9 306.2C234.4 297.2 241 292 249.5 290.7C254.6 289.9 259.4 290.8 263.8 293.4C269.4 296.6 271.1 305.5 269.8 310.2C269.7 310.7 269.2 311.3 268.7 311.6C266.2 313.2 263.7 312.7 261.8 310.2C261.3 309.5 260.7 308.9 260 308.4C258.7 307.5 256.8 307.2 255 307.7C253.6 308.1 252.6 308.9 252.1 310C250 314.7 250.3 318.9 252.8 322.6C254.2 324.6 256.2 325.9 259.3 326.6C263.7 327.6 268.3 328.3 272.5 325.6C282.1 319.4 284.6 310.3 279.6 299.9C275.8 291.8 269 286.2 259.9 283.7C251.7 281.4 244 282.4 236.9 286.7C229.1 291.4 223.9 297.9 221.4 306.2C220.4 309.6 219.5 313.6 220.6 317.9C221.6 321.4 222.7 325.6 223.5 329.9C223.7 331 223.6 332.2 223.4 332.5C223.1 332.6 221.9 332.5 220.8 332.1C217.3 330.6 213.3 328.9 209.7 326.8C205.6 324.4 201.5 321.5 197.7 318.8L196.5 318C195.2 317.1 194.4 315.8 194.3 314.3C193.8 308.3 190.9 303.3 188.1 298.7C187.5 297.8 187 296.9 186.4 296C184.1 292.4 181.7 288.7 180.4 284.6C179.9 283.2 179.5 281.5 179.9 280.8C180.1 280.4 180.9 280 183.1 279.8C185.2 279.6 187.2 279.3 189.2 279L189.6 278.9C190.8 278.7 191.7 278.2 192.3 277.4C192.8 276.6 193 275.6 192.7 274.5C192.4 273.1 192 271.4 191.2 269.8C189.2 265.5 185.8 262.2 182.9 259.6C178.8 256 174.6 252.3 170.5 248.8L170.4 248.7C170 248.4 169.6 247.8 169.7 247.3C169.8 246.8 170.3 246.4 171.1 246.1C172.6 245.6 174.4 245.3 176.1 245.2C180.6 244.9 184.9 246.5 189 248.1C190.2 248.5 191.3 249 192.5 249.4C195.7 250.5 199 251.4 202.1 252C205.6 252.6 206.9 251.1 207.7 248.3C208.5 245.8 209.1 243.3 209.7 241.1C210.6 237.7 212.9 236.1 216.4 236.6C221.1 237.2 225 239.3 228.2 242.8C229.6 244.4 231 246 232.3 247.6L232.5 247.8C233.3 248.8 234.1 249.7 235 250.7C235.8 251.6 236.6 252.1 237.6 252.1C238.5 252.1 239.4 251.6 240.2 250.6C241.7 248.8 242.1 246.5 241.4 243.9C240.2 239.2 238.4 235.4 235.8 232.1C230 224.7 222.1 219.7 211.4 216.8C206.9 215.6 202.3 215 197.8 214.4L197 214.3C188.8 213.2 181.7 214.8 175.9 219.1C173.3 221 171 223.1 168.7 225.2C167.7 226.1 166.6 227.1 165.6 228C165.5 228.1 165.4 228.1 165.4 228.2C165.4 228.1 165.4 228.1 165.4 228V227.8C165.1 226 164.8 224.1 164.7 222.2C164.3 211.4 165.8 202.7 169.3 195C171.1 191 173.9 185.9 178.5 182.2C185.9 176.5 194.5 175.3 204.1 178.8C210.5 181.1 216.2 184.9 220.5 187.9C226.6 192.3 233.3 197 240 201.6C244.2 204.5 248.3 205.4 252.5 204.3C256 203.4 258.6 201.4 260.6 199.7C262.3 198.2 264.4 196.6 266.9 196.8C271.9 197.1 277.8 197.6 283.4 198.8C287.8 199.7 292.1 201.5 296.2 203.2L296.7 203.4C302.5 205.7 307.1 208.5 310.8 211.9C315.2 216 317.4 220 317.7 224.6C318.1 232.6 316.1 240.2 311.5 247.2C309.2 250.8 306.1 253.2 302.4 254.4C298.5 255.6 294.5 255.6 290.1 254.4C287.8 253.8 286.1 252.2 285.6 250.2C285.1 248.4 285.6 246.5 286.9 245C287.3 244.3 287.8 243.8 288.3 243.2Z" fill="white"/>
<path d="M98.8 96.1V95.1V96.1C99 96.1 99.2 96.1 99.4 96.1C100.6 96.3 101.9 96.4 103.1 96.6C105.9 96.9 108.8 97.3 111.5 98C116.2 99.2 118.8 102.1 119.3 106.8C119.5 109.1 119.7 111.4 119.9 113.6V113.8C120 115.3 120.1 116.8 120.3 118.3C120.9 125.6 123.3 130.4 127.9 133.9C128.4 134.3 128.9 134.6 129.3 135C132.4 137.4 135.7 139.8 138 143C138.6 143.8 139.3 144.6 140 145.3L140.3 145.6C141 146.3 141.7 146.7 142.4 146.7C142.6 146.7 142.8 146.7 142.9 146.6C143.4 146.5 144.3 146 144.7 144.5C145.2 142.4 145.5 140.7 145.7 139.1C145.9 137.1 146 134.9 146.1 133C146.3 129.4 146.6 125.6 147.1 122C148 116.1 146.6 111.1 142.7 106.5C137.6 100.6 131.1 95.4 122.6 90.7C117.4 87.8 112.6 86.6 107.8 86.9H107.7C107.2 86.9 106.7 87 106.2 87C105 87.1 103.7 87.1 102.5 87.4C100.9 87.8 99.3 88.4 97.6 89.3C96.3 90 95 91.6 95.6 93.7C96.1 96 97.9 96.1 98.8 96.1Z" fill="white"/>
<path d="M144.7 45.5C146.7 46.4 148.7 47.2 150.7 47.9L152 48.4C155.3 49.6 157.2 51.7 158 54.9C158.8 58.1 158.2 61.2 157.5 64.5L157.3 65.8C156.8 68.2 156.4 70.6 155.9 73.1L155.1 77.5V77.8L155.2 78C155.4 78.7 155.6 79.5 155.8 80.3C156.3 82.2 156.8 84.1 157.5 86C158 87.3 158.5 88.6 159.1 89.8C160 91.9 161 94 161.3 96.2C161.7 99.3 162.2 102.4 162.8 105.4C163 106.3 163.5 107.1 164 107.8C164.2 108 164.3 108.3 164.5 108.6L165.3 110.1L167.2 108.3C167.8 107.8 168.4 107.2 168.9 106.7C169.2 106.4 169.3 106 169.4 105.8C169.8 104.5 170.2 103.3 170.6 102C171.5 99.2 172.5 96.2 173.1 93.2C174.3 87.1 175.1 80.8 176 74.7C176.2 73 176.5 71.2 176.7 69.5C177.2 66.1 176.6 62.6 174.8 59.1C171.7 52.9 167.1 47.3 161.3 42.7C155.7 38.3 150.6 37.1 145.3 39.1C144.1 39.5 142.7 40.7 142.4 42.1C142 43.3 143.7 45 144.7 45.5Z" fill="white"/>
<path d="M268.6 117.4C263.8 116 259 115.1 253.7 114C251 113.5 248.3 113.1 245.7 112.7H245.6C244.6 112.5 243.5 112.4 242.5 112.2H242.3H242.2C241.4 112.3 240.7 112.4 240 112.4C238.6 112.5 237.4 112.7 236.1 112.9C230.7 114 226.1 115 221.4 116.2C216.4 117.5 212.1 119.2 208.4 121.6C206.3 122.9 204.3 124.5 203.4 127.3C203 128.7 203.1 129.7 203.7 130.5C204.4 131.3 205.4 131.5 206.8 131.3C207.6 131.2 208.4 130.9 209.2 130.8C210.1 130.6 210.9 130.4 211.8 130.2H211.9C213.7 129.9 215.6 129.7 217.3 129.8C218.7 129.9 219.8 130.9 221.1 132C221.6 132.4 222 132.8 222.5 133.2C224.3 134.6 226.2 135.9 228.3 136.7C229.9 137.3 231.7 137.6 233.4 137.6C237.7 137.6 240.7 135.8 243.3 134.1L244.8 133.2C246.8 132 249.1 130.6 250.9 129.3C252.3 128.2 253.8 127.1 255.2 126.1L256 125.5C257.6 124.4 259.2 123.2 260.9 122.9C263.9 122.2 267.2 122.7 270.2 124.2C271.7 125 273.2 126.1 274.6 127.1C275.4 127.7 276.3 128.4 277.2 129C277.4 129.1 279.1 130.2 280.4 129.5C281.4 129 282.1 127.7 282.3 126.7C282.7 124.4 281.5 122.3 279 121.2C275.8 120 272.3 118.4 268.6 117.4Z" fill="white"/>
<path d="M225.1 90C222.8 92.6 220.4 95.8 220.2 100.1C220.1 101.2 220.4 102.1 221.1 102.7C221.5 103.1 222.1 103.3 222.8 103.3C223 103.3 223.3 103.3 223.5 103.2L223.9 103.1C226 102.7 228.1 102.3 230.2 101.7C236.4 100 242 98.4 247.2 96.8C249.4 96.1 251.2 95.4 252.8 94.5C254.1 93.8 255.2 92.8 256.3 91.8C256.5 91.6 256.8 91.4 257 91.2C258.4 90 259.7 88.8 261.1 87.6C263.7 85.3 266.4 82.8 269.2 80.6C272.3 78.1 275.1 77.1 277.9 77.6C280.5 78.1 282.6 79 284.5 80.5C286 81.7 287.7 83 289.4 84.1C290.1 84.5 292.3 85.4 293.3 84.3C294 83.6 294.3 82.5 294.4 81C294.5 80 293.9 78.9 293.1 78.3C292.8 78.1 292.5 77.9 292.3 77.7C291 76.7 289.6 75.6 288 74.9C284.5 73.4 281 72.1 277.6 71.2C275.3 70.5 272.9 70.1 270.7 69.7H270.6C269.6 69.5 268.7 69.4 267.7 69.1H267.4H267.2C266.1 69.3 265.1 69.5 264 69.7C261.6 70.1 259.3 70.5 257 71.3C251.7 73.2 246.5 75.5 241.4 78.1C234.8 81.1 229.4 85.2 225.1 90Z" fill="white"/>
</g>
<defs>
<clipPath id="clip0">
<rect width="326.5" height="356.4" fill="white"/>
</clipPath>
</defs>
</svg>
